<svg id="Capa_1" data-name="Capa 1" xmlns="http://www.w3.org/2000/svg" viewBox="0 0 1080 523"><defs><style>.cls-1,.cls-3{fill:#ff611a;}.cls-2{opacity:0.7;}.cls-3,.cls-4{opacity:0.8;}</style></defs><title>LOGO PRINCIPAL NARANJA</title><path class="cls-1" d="M424.81,67s-30.55,84.13-72.68,113c0,0,47.87-19.78,82.86-84.52V77.14Z"/><g class="cls-2"><path class="cls-1" d="M433.29,96.82c-28.45,44-36.84,58.93-73,78.63-33.65,18.38-68.19,40.15-94.16,81.85C242,296.13,235,348.72,226,405.08a8.29,8.29,0,0,1-.51,1.83c-3.18,7.75-26.73,64-50.35,87.45l-11.31.08-1.32,1.49h0l-9.63-10.53c23.35-37.67,38.07-64.25,49.67-116.85s10.31-87.85,34.25-125.42c26.27-41.19,78-73.93,111.06-94.92,36.91-23.43,48.92-35.72,76.42-79.7Z"/></g><g class="cls-2"><path class="cls-1" d="M118.17,446.68l-.48-29.39c19.29-25.52,69.43-53.48,69.43-53.48,35.69-20.21,76.54-40.61,103.72-75.9,29-37.7,25.53-87.44,32.81-134.47s26.19-77.47,56.14-123L398.3,42.22c-29,46.94-46.17,72.51-51.65,137.82-4.14,49.35-8.28,90.9-36.91,128.91-26.12,34.66-65.75,55.94-103.81,76.77s-55.59,33.67-81.81,67.58Z"/></g><path class="cls-1" d="M400.38,40.49S340,95.69,323.11,164.18c0,0,.23-60.12,56.91-133.87h8.14Z"/><ellipse class="cls-1" cx="220.45" cy="139.07" rx="28.59" ry="28.14"/><path class="cls-3" d="M275.71,523.4l.06-29.76-113.29,2.3-44.31-49.26-1-54.82V361.75L36,309l.1-93.56,76.48-44.54V87.09l63.75-51.26,39.2-.39.2,48.83h33l.14-83L166.59,1a11.55,11.55,0,0,0-7.19,2.52L81.11,66.71a8.88,8.88,0,0,0-3.33,6.93v66.85a8.1,8.1,0,0,1-4.47,7.25L5,188.79A6.88,6.88,0,0,0,1.2,195l-1,131.57a6.64,6.64,0,0,0,3.66,6l75.54,50.7a7.88,7.88,0,0,1,4.34,7.12v72a6.9,6.9,0,0,0,3.07,5.81l52,54.34a4.22,4.22,0,0,0,2.63.91h135"/><path class="cls-1" d="M604.86,225v-.59q0-10.18,2.81-16.34a26.1,26.1,0,0,1,6.86-9.49,20.68,20.68,0,0,1,8.5-4.36,36.32,36.32,0,0,1,8-1h39.89v17.67H632.17a10.35,10.35,0,0,0-5.49,1.83,12.52,12.52,0,0,0-3.78,4.1q-1.71,2.79-1.71,7.92t1.71,8.09a15,15,0,0,0,3.78,4.37,13.08,13.08,0,0,0,5.62,2.12h15.87a36.48,36.48,0,0,1,8,1,20.69,20.69,0,0,1,8.54,4.25,24.5,24.5,0,0,1,6.69,9.38q2.71,6.15,2.91,16.56v.59q-.13,10.18-2.94,16.49a27.33,27.33,0,0,1-6.8,9.74A21.43,21.43,0,0,1,656,302a31.68,31.68,0,0,1-8,1.21H608.14V285.76l38.82.15a14,14,0,0,0,5.49-2.34,16.74,16.74,0,0,0,3.78-4.62,16.24,16.24,0,0,0,1.71-8.14q0-5.26-1.71-8.06a11,11,0,0,0-3.78-4,12.3,12.3,0,0,0-5.35-1.68H631.17a34.68,34.68,0,0,1-8.07-1.1,20.59,20.59,0,0,1-8.57-4.58,27.38,27.38,0,0,1-6.86-9.78Q604.87,235.33,604.86,225Z"/><path class="cls-1" d="M687.72,303.21v-110h69.41v18.18H703.92v28.36h31.13V257.4H703.92v28.51h53.21v17.3Z"/><path class="cls-1" d="M769.38,303.35v-110h16.33v68.16l36.08-68.31h17.8L809.54,248l29.52,55.4H821.39L800.64,264.8l-14.93,28.07v10.48Z"/><path class="cls-1" d="M846.49,303.35v-110h16.33v68.16L898.9,193.2h17.8L886.65,248l29.52,55.4H898.5L877.75,264.8l-14.93,28.07v10.48Z"/><path class="cls-1" d="M921.45,303.21l29.43-110h16.21l29.73,110h-16l-7.61-28.66H945.1l-7.58,28.66Zm28.26-46.1h18.87l-9.46-35.58Z"/><path class="cls-1" d="M1004.72,303.5v-110h16.19l42.64,77.61V193.35h17V303.5h-17l-42.64-77.76V303.5Z"/><g class="cls-4"><path class="cls-1" d="M606.18,361.3V327.36H620.5v3H609.59v11.88H619.8v2.88H609.59v13.18H621v3Z"/><path class="cls-1" d="M641.66,361.3l-7.18-15.05-7.19,15.05h-3.72l9-17.88-8.09-16.06h3.72l6.39,13.42,6.33-13.42h3.62l-8,16.11,9,17.83Z"/><path class="cls-1" d="M667.4,336.57a10.89,10.89,0,0,1-.73,4.14,8.82,8.82,0,0,1-1.93,3,8.17,8.17,0,0,1-2.79,1.82,8.87,8.87,0,0,1-3.3.62h-5.22V361.3H650V327.36h8.39a12.52,12.52,0,0,1,3.17.43,7.79,7.79,0,0,1,2.92,1.52,7.94,7.94,0,0,1,2.13,2.85A10.42,10.42,0,0,1,667.4,336.57Zm-3.47,0a8.35,8.35,0,0,0-.45-2.89,5.11,5.11,0,0,0-1.26-2,5,5,0,0,0-1.83-1.12,6.75,6.75,0,0,0-2.24-.36h-4.72v13h4.77a5.57,5.57,0,0,0,4-1.65A6.78,6.78,0,0,0,663.93,336.59Z"/><path class="cls-1" d="M673.08,361.3V327.36h14.33v3H676.5v11.88h10.2v2.88H676.5v13.18h11.41v3Z"/><path class="cls-1" d="M708.57,361.3l-6.43-15.72h-4.58V361.3H694.1V327.36h8.54a12.33,12.33,0,0,1,3.39.46,7.9,7.9,0,0,1,2.92,1.51,7.58,7.58,0,0,1,2.06,2.78,10.23,10.23,0,0,1,.78,4.22,10.59,10.59,0,0,1-.58,3.71,8.26,8.26,0,0,1-1.51,2.61,6.91,6.91,0,0,1-2.06,1.64,6.78,6.78,0,0,1-2.24.71l6.94,16.3Zm-.2-24.8a7.74,7.74,0,0,0-.53-3,5.05,5.05,0,0,0-1.4-1.93,5.11,5.11,0,0,0-2-1,9.47,9.47,0,0,0-2.33-.29h-4.53v12.7h4.68a6,6,0,0,0,4.5-1.69A6.57,6.57,0,0,0,708.37,336.5Z"/><path class="cls-1" d="M724,330.24V361.3h-3.47V330.24h-6.83v-2.88h17.19v2.88Z"/><path class="cls-1" d="M756.33,344.29a30.33,30.33,0,0,1-.81,7.26,18.5,18.5,0,0,1-2.31,5.63,11.18,11.18,0,0,1-3.67,3.64,9.33,9.33,0,0,1-4.93,1.3,9.48,9.48,0,0,1-5-1.3,11.32,11.32,0,0,1-3.72-3.64,18,18,0,0,1-2.33-5.63,30.33,30.33,0,0,1-.81-7.26,31.21,31.21,0,0,1,.78-7.22,17.68,17.68,0,0,1,2.29-5.61,11.08,11.08,0,0,1,3.69-3.62,9.75,9.75,0,0,1,5.05-1.29,9.42,9.42,0,0,1,4.93,1.29,11.21,11.21,0,0,1,3.67,3.62,18.17,18.17,0,0,1,2.31,5.61A30.11,30.11,0,0,1,756.33,344.29Zm-3.67,0a30.86,30.86,0,0,0-.51-5.76,16.28,16.28,0,0,0-1.53-4.65,9.12,9.12,0,0,0-2.54-3.11,5.53,5.53,0,0,0-3.47-1.15,5.79,5.79,0,0,0-3.59,1.15,8.79,8.79,0,0,0-2.54,3.11,17.28,17.28,0,0,0-1.51,4.65A33.37,33.37,0,0,0,737,350a17.94,17.94,0,0,0,1.51,4.69A8.75,8.75,0,0,0,741,357.9a5.86,5.86,0,0,0,3.59,1.15,5.67,5.67,0,0,0,3.52-1.15,8.82,8.82,0,0,0,2.52-3.17,17.58,17.58,0,0,0,1.5-4.69A30.83,30.83,0,0,0,752.66,344.29Z"/><path class="cls-1" d="M778.39,352.63a10.65,10.65,0,0,1-.7,4,8.6,8.6,0,0,1-1.94,3,8.38,8.38,0,0,1-2.89,1.87,9.56,9.56,0,0,1-3.51.65,11.49,11.49,0,0,1-5-1.1,10.28,10.28,0,0,1-3.69-2.93l2.16-2.35a7.79,7.79,0,0,0,2.92,2.45,8.07,8.07,0,0,0,3.56.86,5.5,5.5,0,0,0,4.05-1.63,6.29,6.29,0,0,0,1.63-4.65,6,6,0,0,0-.5-2.54,6.84,6.84,0,0,0-1.35-2,11.28,11.28,0,0,0-1.94-1.53,23.7,23.7,0,0,0-2.29-1.25,21.55,21.55,0,0,1-2.76-1.51,10.79,10.79,0,0,1-2.29-1.94,8.71,8.71,0,0,1-1.58-2.61,9.51,9.51,0,0,1-.6-3.52,10.31,10.31,0,0,1,.75-4.1,8.49,8.49,0,0,1,2-2.93,8.63,8.63,0,0,1,2.9-1.75,10,10,0,0,1,3.36-.57,11.35,11.35,0,0,1,4.35.79,7.78,7.78,0,0,1,3.24,2.47l-2.16,2.35a5.83,5.83,0,0,0-2.36-2,7.26,7.26,0,0,0-3-.6,6.24,6.24,0,0,0-2.08.36,5,5,0,0,0-1.84,1.13,5.69,5.69,0,0,0-1.3,2,7.19,7.19,0,0,0-.51,2.83,6.29,6.29,0,0,0,.45,2.49,6.42,6.42,0,0,0,1.24,1.87,9,9,0,0,0,1.81,1.44c.68.41,1.4.8,2.13,1.15a29.41,29.41,0,0,1,2.79,1.53,13.18,13.18,0,0,1,2.49,2,8.78,8.78,0,0,1,1.76,2.68A9,9,0,0,1,778.39,352.63Z"/><path class="cls-1" d="M794.08,361.3V327.36H808.4v3H797.49v11.88H807.7v2.88H797.49v13.18h11.42v3Z"/><path class="cls-1" d="M830.94,361.3l-12.38-28.23h-.15V361.3h-3.32V327.36h4.37l12.32,28.24h.15V327.36h3.21V361.3Z"/><path class="cls-1" d="M868,352.63a10.45,10.45,0,0,1-.71,4,8.58,8.58,0,0,1-1.93,3,8.38,8.38,0,0,1-2.89,1.87,9.65,9.65,0,0,1-3.52.65,11.41,11.41,0,0,1-5-1.1,10.24,10.24,0,0,1-3.7-2.93l2.17-2.35a7.84,7.84,0,0,0,2.91,2.45,8.11,8.11,0,0,0,3.57.86,5.5,5.5,0,0,0,4.05-1.63,6.29,6.29,0,0,0,1.63-4.65,6.12,6.12,0,0,0-.5-2.54,6.87,6.87,0,0,0-1.36-2,10.83,10.83,0,0,0-1.93-1.53c-.73-.45-1.49-.86-2.29-1.25a22.38,22.38,0,0,1-2.77-1.51,10.73,10.73,0,0,1-2.28-1.94,8.73,8.73,0,0,1-1.59-2.61,9.51,9.51,0,0,1-.6-3.52,10.31,10.31,0,0,1,.75-4.1,8.37,8.37,0,0,1,4.93-4.68,10,10,0,0,1,3.37-.57,11.35,11.35,0,0,1,4.35.79,7.78,7.78,0,0,1,3.24,2.47l-2.16,2.35a5.8,5.8,0,0,0-2.37-2,7.22,7.22,0,0,0-3-.6,6.29,6.29,0,0,0-2.09.36,4.92,4.92,0,0,0-1.83,1.13,5.71,5.71,0,0,0-1.31,2,7.38,7.38,0,0,0-.5,2.83,6.29,6.29,0,0,0,.45,2.49,6.2,6.2,0,0,0,1.23,1.87,9.25,9.25,0,0,0,1.81,1.44c.69.41,1.4.8,2.14,1.15a29.41,29.41,0,0,1,2.79,1.53,13.18,13.18,0,0,1,2.49,2,9,9,0,0,1,1.76,2.68A9.22,9.22,0,0,1,868,352.63Z"/><path class="cls-1" d="M896.42,344.29a30.87,30.87,0,0,1-.8,7.26,18.51,18.51,0,0,1-2.32,5.63,11.18,11.18,0,0,1-3.67,3.64,9.32,9.32,0,0,1-4.92,1.3,9.45,9.45,0,0,1-5-1.3,11.32,11.32,0,0,1-3.72-3.64,17.8,17.8,0,0,1-2.34-5.63,30.33,30.33,0,0,1-.81-7.26,31.21,31.21,0,0,1,.78-7.22,17.92,17.92,0,0,1,2.29-5.61,11.2,11.2,0,0,1,3.7-3.62,9.75,9.75,0,0,1,5.05-1.29,9.41,9.41,0,0,1,4.92,1.29,11.21,11.21,0,0,1,3.67,3.62,18.18,18.18,0,0,1,2.32,5.61A30.64,30.64,0,0,1,896.42,344.29Zm-3.67,0a31.76,31.76,0,0,0-.5-5.76,16.93,16.93,0,0,0-1.53-4.65,9.23,9.23,0,0,0-2.54-3.11,5.55,5.55,0,0,0-3.47-1.15,5.77,5.77,0,0,0-3.59,1.15,8.81,8.81,0,0,0-2.55,3.11,17.28,17.28,0,0,0-1.5,4.65,32.73,32.73,0,0,0,0,11.51,17.94,17.94,0,0,0,1.5,4.69,8.78,8.78,0,0,0,2.55,3.17,5.84,5.84,0,0,0,3.59,1.15,5.69,5.69,0,0,0,3.52-1.15,8.9,8.9,0,0,0,2.51-3.17,17.94,17.94,0,0,0,1.51-4.69A31.73,31.73,0,0,0,892.75,344.29Z"/><path class="cls-1" d="M903.06,361.3V327.36h3.51v30.83h10.16v3.11Z"/><path class="cls-1" d="M939.17,354.38a11.45,11.45,0,0,1-1.71,4,8,8,0,0,1-3.14,2.71,10.59,10.59,0,0,1-4.82,1,10.47,10.47,0,0,1-4.8-1,8.12,8.12,0,0,1-3.12-2.71,11.06,11.06,0,0,1-1.68-4,23.25,23.25,0,0,1-.51-5V327.36h3.52V349a23.75,23.75,0,0,0,.28,3.69,10.43,10.43,0,0,0,1,3.24,6.16,6.16,0,0,0,2,2.28,6,6,0,0,0,8.7-2.28,10.42,10.42,0,0,0,1-3.21,25.05,25.05,0,0,0,.27-3.72V327.36h3.52v22.05A22,22,0,0,1,939.17,354.38Z"/><path class="cls-1" d="M963,360.92a10.48,10.48,0,0,1-10.05-.17A11.94,11.94,0,0,1,949.1,357a18.64,18.64,0,0,1-2.39-5.63,30.53,30.53,0,0,1,0-14.14,18.18,18.18,0,0,1,2.42-5.63,11.73,11.73,0,0,1,3.84-3.72,9.91,9.91,0,0,1,5.13-1.34,11.14,11.14,0,0,1,4.7,1,8.84,8.84,0,0,1,3.64,3.17l-2.26,2.2a7.81,7.81,0,0,0-2.69-2.49,6.83,6.83,0,0,0-3.24-.81,6.49,6.49,0,0,0-3.85,1.15,8.89,8.89,0,0,0-2.71,3.16,16.65,16.65,0,0,0-1.61,4.7,29.67,29.67,0,0,0-.53,5.7,27.7,27.7,0,0,0,.56,5.68,17.06,17.06,0,0,0,1.63,4.68,9.13,9.13,0,0,0,2.71,3.18,6.37,6.37,0,0,0,3.85,1.18,6.14,6.14,0,0,0,3.47-1,8.31,8.31,0,0,0,2.56-2.71l2.21,2.16A9.74,9.74,0,0,1,963,360.92Z"/><path class="cls-1" d="M971.52,361.3V327.36H975V361.3Z"/><path class="cls-1" d="M1005.2,344.29a30.87,30.87,0,0,1-.8,7.26,18.51,18.51,0,0,1-2.32,5.63,11.18,11.18,0,0,1-3.67,3.64,9.32,9.32,0,0,1-4.92,1.3,9.43,9.43,0,0,1-5-1.3,11.32,11.32,0,0,1-3.72-3.64,17.8,17.8,0,0,1-2.34-5.63,30.33,30.33,0,0,1-.81-7.26,31.21,31.21,0,0,1,.78-7.22,17.92,17.92,0,0,1,2.29-5.61,11.2,11.2,0,0,1,3.7-3.62,9.73,9.73,0,0,1,5-1.29,9.41,9.41,0,0,1,4.92,1.29,11.21,11.21,0,0,1,3.67,3.62,18.18,18.18,0,0,1,2.32,5.61A30.64,30.64,0,0,1,1005.2,344.29Zm-3.67,0a31.76,31.76,0,0,0-.5-5.76,16.93,16.93,0,0,0-1.53-4.65,9.23,9.23,0,0,0-2.54-3.11,5.55,5.55,0,0,0-3.47-1.15,5.82,5.82,0,0,0-3.6,1.15,8.89,8.89,0,0,0-2.54,3.11,17.28,17.28,0,0,0-1.5,4.65,32.73,32.73,0,0,0,0,11.51,17.94,17.94,0,0,0,1.5,4.69,8.86,8.86,0,0,0,2.54,3.17,5.89,5.89,0,0,0,3.6,1.15A5.69,5.69,0,0,0,997,357.9a8.9,8.9,0,0,0,2.51-3.17A17.94,17.94,0,0,0,1001,350,31.73,31.73,0,0,0,1001.53,344.29Z"/><path class="cls-1" d="M1027.68,361.3l-12.38-28.23h-.15V361.3h-3.31V327.36h4.37l12.31,28.24h.16V327.36h3.21V361.3Z"/><path class="cls-1" d="M1040,361.3V327.36h14.32v3h-10.91v11.88h10.21v2.88h-10.21v13.18h11.42v3Z"/><path class="cls-1" d="M1076.48,352.63a10.65,10.65,0,0,1-.7,4,8.75,8.75,0,0,1-1.94,3,8.38,8.38,0,0,1-2.89,1.87,9.65,9.65,0,0,1-3.52.65,11.41,11.41,0,0,1-5-1.1,10.32,10.32,0,0,1-3.7-2.93l2.17-2.35a7.84,7.84,0,0,0,2.91,2.45,8.11,8.11,0,0,0,3.57.86,5.5,5.5,0,0,0,4-1.63,6.29,6.29,0,0,0,1.63-4.65,6.12,6.12,0,0,0-.5-2.54,6.87,6.87,0,0,0-1.36-2,10.83,10.83,0,0,0-1.93-1.53c-.73-.45-1.49-.86-2.29-1.25a22.38,22.38,0,0,1-2.77-1.51,10.73,10.73,0,0,1-2.28-1.94,8.73,8.73,0,0,1-1.59-2.61,9.51,9.51,0,0,1-.6-3.52,10.31,10.31,0,0,1,.75-4.1,8.37,8.37,0,0,1,4.93-4.68,10,10,0,0,1,3.37-.57,11.35,11.35,0,0,1,4.35.79,7.78,7.78,0,0,1,3.24,2.47l-2.16,2.35a5.8,5.8,0,0,0-2.37-2,7.22,7.22,0,0,0-3-.6,6.29,6.29,0,0,0-2.09.36,4.92,4.92,0,0,0-1.83,1.13,5.71,5.71,0,0,0-1.31,2,7.38,7.38,0,0,0-.5,2.83,6.29,6.29,0,0,0,.45,2.49,6.2,6.2,0,0,0,1.23,1.87,9.25,9.25,0,0,0,1.81,1.44c.69.41,1.4.8,2.14,1.15a29.41,29.41,0,0,1,2.79,1.53,13.18,13.18,0,0,1,2.49,2,9,9,0,0,1,1.76,2.68A9.22,9.22,0,0,1,1076.48,352.63Z"/><path class="cls-1" d="M624.52,409.58a9.87,9.87,0,0,1-.88,4.41,8.24,8.24,0,0,1-2.23,2.85,8.38,8.38,0,0,1-3,1.53,11.81,11.81,0,0,1-3.14.46h-9.09V384.89h8.06a13.86,13.86,0,0,1,3.13.38,8.73,8.73,0,0,1,3,1.32,7.09,7.09,0,0,1,2.19,2.54,8.56,8.56,0,0,1,.86,4.05,9.3,9.3,0,0,1-.44,3,7.39,7.39,0,0,1-1.14,2.2,6.38,6.38,0,0,1-1.62,1.54,8.43,8.43,0,0,1-1.88.93v.1a8,8,0,0,1,2.06.76,7.14,7.14,0,0,1,2,1.61,8.28,8.28,0,0,1,1.54,2.59A10.19,10.19,0,0,1,624.52,409.58Zm-4.47-15.9a6.71,6.71,0,0,0-.53-2.81,4.79,4.79,0,0,0-1.41-1.84,5.33,5.33,0,0,0-2-1,9.1,9.1,0,0,0-2.26-.29h-4.38v12H614a7.13,7.13,0,0,0,2.18-.34,5.36,5.36,0,0,0,1.94-1.07,5.56,5.56,0,0,0,1.4-1.89A6.27,6.27,0,0,0,620.05,393.68Zm1,15.68a7.79,7.79,0,0,0-.6-3.23,6,6,0,0,0-1.56-2.12,6.14,6.14,0,0,0-2.13-1.19,7.3,7.3,0,0,0-2.29-.39h-5V416h5a8.57,8.57,0,0,0,2.56-.38,5.7,5.7,0,0,0,2.11-1.19,5.52,5.52,0,0,0,1.41-2.06A7.77,7.77,0,0,0,621.05,409.36Z"/><path class="cls-1" d="M630.61,418.83V384.89h3.51v33.94Z"/><path class="cls-1" d="M664.28,401.81a30.35,30.35,0,0,1-.8,7.26,18.65,18.65,0,0,1-2.31,5.63,11.31,11.31,0,0,1-3.67,3.65,9.44,9.44,0,0,1-4.93,1.29,9.57,9.57,0,0,1-5-1.29,11.35,11.35,0,0,1-3.72-3.65,18.17,18.17,0,0,1-2.34-5.63,30.35,30.35,0,0,1-.8-7.26,31.12,31.12,0,0,1,.78-7.21,17.91,17.91,0,0,1,2.28-5.61,11.2,11.2,0,0,1,3.7-3.62,9.76,9.76,0,0,1,5.05-1.3,9.45,9.45,0,0,1,4.93,1.3,11.31,11.31,0,0,1,3.67,3.62,18.42,18.42,0,0,1,2.31,5.61A30,30,0,0,1,664.28,401.81Zm-3.67,0a30.78,30.78,0,0,0-.5-5.75,16.6,16.6,0,0,0-1.53-4.65,9.37,9.37,0,0,0-2.54-3.12,5.55,5.55,0,0,0-3.47-1.15,5.79,5.79,0,0,0-3.59,1.15,8.81,8.81,0,0,0-2.54,3.12,16.93,16.93,0,0,0-1.51,4.65,33.31,33.31,0,0,0,0,11.5,17.65,17.65,0,0,0,1.51,4.7,8.61,8.61,0,0,0,2.54,3.16,5.79,5.79,0,0,0,3.59,1.15,5.63,5.63,0,0,0,3.52-1.15,8.76,8.76,0,0,0,2.51-3.16,17.65,17.65,0,0,0,1.51-4.7A30.86,30.86,0,0,0,660.61,401.81Z"/><path class="cls-1" d="M695.2,418.83V389.35h-.15l-8.73,29.48h-3.26l-8.67-29.48h-.15v29.48h-3.32V384.89h5.23l8.49,28.66h.2l8.4-28.66h5.43v33.94Z"/><path class="cls-1" d="M706.81,418.83V384.89h14.33v3H710.23v11.89h10.2v2.87h-10.2v13.19h11.41v3Zm7.59-36.63h-2.82l4.53-6.9h3.62Z"/><path class="cls-1" d="M748.38,401.91a26.88,26.88,0,0,1-.9,7.33,15,15,0,0,1-2.62,5.3,11,11,0,0,1-4.09,3.21,12.79,12.79,0,0,1-5.31,1.08h-7.64V384.89h7.69a12.76,12.76,0,0,1,5.31,1.08,10.75,10.75,0,0,1,4.07,3.23,15.61,15.61,0,0,1,2.59,5.35A27.11,27.11,0,0,1,748.38,401.91Zm-3.47,0a23.81,23.81,0,0,0-.73-6.28,12.9,12.9,0,0,0-2-4.4,8.42,8.42,0,0,0-3-2.6,8.27,8.27,0,0,0-3.75-.87h-4.12V416h4.12a8.39,8.39,0,0,0,3.75-.86,8.52,8.52,0,0,0,3-2.6,13.06,13.06,0,0,0,2-4.38A23.29,23.29,0,0,0,744.91,401.91Z"/><path class="cls-1" d="M755,418.83V384.89h3.51v33.94Z"/><path class="cls-1" d="M782.21,418.44a9.89,9.89,0,0,1-4.88,1.2,9.76,9.76,0,0,1-5.18-1.37,11.88,11.88,0,0,1-3.81-3.73A18.45,18.45,0,0,1,766,408.9a28.14,28.14,0,0,1-.83-7,28.45,28.45,0,0,1,.83-7.1,17.93,17.93,0,0,1,2.41-5.63,11.92,11.92,0,0,1,3.85-3.71,9.76,9.76,0,0,1,5.12-1.35,11.08,11.08,0,0,1,4.7,1,8.9,8.9,0,0,1,3.65,3.16l-2.27,2.21a7.59,7.59,0,0,0-2.68-2.49,6.79,6.79,0,0,0-3.25-.82,6.48,6.48,0,0,0-3.84,1.15,8.94,8.94,0,0,0-2.72,3.17,16.58,16.58,0,0,0-1.6,4.69,28.92,28.92,0,0,0-.53,5.71,27.86,27.86,0,0,0,.55,5.68,17.33,17.33,0,0,0,1.63,4.67,9.2,9.2,0,0,0,2.72,3.19,6.43,6.43,0,0,0,3.84,1.17,6.12,6.12,0,0,0,3.47-1,8.35,8.35,0,0,0,2.57-2.71l2.21,2.16A9.81,9.81,0,0,1,782.21,418.44Z"/><path class="cls-1" d="M805.38,418.83l-2.16-8.49h-11L790,418.83h-3.57l9.05-33.94h4.77l8.8,33.94Zm-7.49-30.92h-.2l-4.92,19.75h10Z"/><path class="cls-1" d="M828.91,410.15a10.61,10.61,0,0,1-.71,4,8.77,8.77,0,0,1-1.93,3,8.45,8.45,0,0,1-2.89,1.86,9.44,9.44,0,0,1-3.52.65,11.41,11.41,0,0,1-5-1.1,10.13,10.13,0,0,1-3.7-2.93l2.16-2.34a8.21,8.21,0,0,0,6.49,3.3,5.5,5.5,0,0,0,4.05-1.63,6.3,6.3,0,0,0,1.63-4.65,6.19,6.19,0,0,0-.5-2.54,6.82,6.82,0,0,0-1.36-2,10.52,10.52,0,0,0-1.94-1.54,24.71,24.71,0,0,0-2.28-1.24,22.26,22.26,0,0,1-2.77-1.51,11,11,0,0,1-2.28-1.94,8.7,8.7,0,0,1-1.59-2.62,9.47,9.47,0,0,1-.6-3.52,10.38,10.38,0,0,1,.75-4.1,8.39,8.39,0,0,1,4.93-4.67,10,10,0,0,1,3.37-.58,11.49,11.49,0,0,1,4.34.79,7.87,7.87,0,0,1,3.25,2.47l-2.16,2.35a5.87,5.87,0,0,0-2.37-2,7.22,7.22,0,0,0-3-.6,6.29,6.29,0,0,0-2.09.36,5,5,0,0,0-1.83,1.13,5.67,5.67,0,0,0-1.31,2,7.23,7.23,0,0,0-.5,2.83,6,6,0,0,0,1.68,4.37,8.59,8.59,0,0,0,1.81,1.43,23.07,23.07,0,0,0,2.14,1.15,29.76,29.76,0,0,1,2.79,1.54,12.4,12.4,0,0,1,2.48,2,8.65,8.65,0,0,1,1.76,2.69A9,9,0,0,1,828.91,410.15Z"/></g><path class="cls-1" d="M112.6,87.09,81.11,66.71s-3.33,1.45-3.33,8.61,0,65.82,0,65.82a9.42,9.42,0,0,1-.62,2.54l35.47,27.17Z"/><path class="cls-1" d="M275.77,493.64V523.4H140.93a3.65,3.65,0,0,1-2.12-.91l23.66-26.56h0l15.2-1.59Z"/><polygon class="cls-1" points="165.7 170.85 112.61 170.85 111.43 137.57 165.7 137.57 165.7 170.85"/><path class="cls-1" d="M36,309,1.43,330.35a7.45,7.45,0,0,0,1,1.12C2.84,331.83,81,384.2,81,384.2a7.68,7.68,0,0,1,1.8,2.16l34.39-24.61Z"/><path class="cls-1" d="M117.69,417.21l.48,29.39,6,6.7s29.89-45.41,99.49-77.27c0,0-60.16,15.33-106,41.18"/><path class="cls-1" d="M346.32,183.31l-28,18.22s-2.43,93.38-22,123c0,0,39.18-37,44.55-86S346.32,183.31,346.32,183.31Z"/><path class="cls-1" d="M205.62,353.44l32.66-19.39s7.21-63.61,52.16-108.16C290.44,225.89,230.38,246.34,205.62,353.44Z"/><path class="cls-1" d="M152.85,485.4l9.64,10.53,12.33-1.29s54.07-56.64,56.53-123C231.35,371.63,205.62,433.78,152.85,485.4Z"/><ellipse class="cls-1" cx="331.5" cy="385.46" rx="28.6" ry="28.16"/><path class="cls-3" d="M276.21.93l-.06,29.77,112-.78,46.73,47.35,0,55.27v30.13L516,215.49l-.1,93.6L439.4,353.66v83.8l-63.78,51.28-39.22.39-.2-48.84h-33l-.14,83,82.35.34a11.55,11.55,0,0,0,7.19-2.52l78.33-63.26a8.87,8.87,0,0,0,3.33-6.94V384a8.12,8.12,0,0,1,4.48-7.26l68.34-41.07a6.91,6.91,0,0,0,3.81-6.17l1-131.63a6.67,6.67,0,0,0-3.67-6L472.6,141.22a7.88,7.88,0,0,1-4.34-7.12V62a6.94,6.94,0,0,0-3.08-5.81l-52-54.37a4.22,4.22,0,0,0-2.63-.91H276.21Z"/><path class="cls-1" d="M439.4,437.46l31.51,20.39s3.33-1.45,3.33-8.61,0-65.85,0-65.85a9.17,9.17,0,0,1,.63-2.55l-35.5-27.18Z"/><polygon class="cls-1" points="386.28 353.65 439.4 353.66 440.58 386.95 386.28 386.95 386.28 353.65"/><path class="cls-1" d="M516,215.49l34.6-21.41a7.45,7.45,0,0,0-1-1.12c-.44-.36-78.59-52.76-78.59-52.76a7.68,7.68,0,0,1-1.8-2.16l-34.41,24.63Z"/><path class="cls-1" d="M275.5.93l.65,29.77,112-.78,24-28.66a5.22,5.22,0,0,0-2.12-.33Z"/></svg>